<svg xmlns="http://www.w3.org/2000/svg" viewBox="0 0 132 132"><defs><style>.cls-1{fill:#d32f2f;}.cls-2{fill:#c62828;}.cls-3{fill:#31bafd;}.cls-4{fill:#fff;}.cls-5{fill:#324a5e;}.cls-6{fill:#ffd15d;}.cls-7{fill:#2b3b4e;}</style></defs><title>загрузка</title><g id="Layer_2" data-name="Layer 2"><g id="Layer_1-2" data-name="Layer 1"><circle class="cls-1" cx="66" cy="66" r="66"/><path class="cls-2" d="M131.2,76.31,88.94,34.06,66,46,29.69,99.31l32.58,32.58c1.24.07,2.48.11,3.74.11A66,66,0,0,0,131.2,76.31Z"/><path class="cls-3" d="M50,73.1l.14,10.06a2,2,0,1,0,4,0L53.8,73Z"/><path class="cls-3" d="M50.26,89.39l-7.79-1.27.14,3.82,7.08,1.13a8.94,8.94,0,0,0,8.92-4l6.8-10.48a7.85,7.85,0,0,0,1.13-6.37h0l-7.08.28,1.42,6.37L55.5,87.13A5.32,5.32,0,0,1,50.26,89.39Z"/><rect class="cls-3" x="31.1" y="90.38" width="10.48" height="10.76" transform="translate(-64.86 111.54) rotate(-78.08)"/><path class="cls-4" d="M58.19,48.45l6.37,6.23,7.37-7.22,18.7-4.82L88.51,34,68.68,39.1a3.9,3.9,0,0,0-2.12,1.13Z"/><path class="cls-5" d="M66.55,75.79h0a62.63,62.63,0,0,0,.85-20.54l-.28-2.55L60.6,46.19a1.54,1.54,0,0,0-2.12,0l-8.78,8.64h0a8.06,8.06,0,0,0-10.77,3.68l-7.79,16a3.63,3.63,0,0,0,1.84,5L30.57,90.67a1.3,1.3,0,0,0,1,1.56l10.62,2.12a1.3,1.3,0,0,0,1.56-1L47,77.92Z"/><path class="cls-6" d="M90.21,55.54S98,66.73,98,71.12a7.79,7.79,0,1,1-15.58,0C82.42,66.73,90.21,55.54,90.21,55.54Z"/><path class="cls-4" d="M89.22,75.65a1,1,0,0,1,1-1,3.48,3.48,0,0,0,3.4-3.54,1,1,0,1,1,2,0,5.41,5.41,0,0,1-5.38,5.52A1,1,0,0,1,89.22,75.65Z"/><path class="cls-6" d="M90.21,86.56s5.1,7.22,5.1,10.2a5.2,5.2,0,0,1-5.1,5.24,5.11,5.11,0,0,1-5.1-5.24C85.11,93.78,90.21,86.56,90.21,86.56Z"/><path class="cls-4" d="M89.36,99.59a.76.76,0,0,1,.71-.71,2.24,2.24,0,0,0,2.27-2.27.71.71,0,1,1,1.42,0,3.54,3.54,0,0,1-3.54,3.68C89.93,100.3,89.64,100,89.36,99.59Z"/><path class="cls-7" d="M67.12,52.7l-4.41-4.41L53,58,42,76,38,93.52l4.17.83a1.3,1.3,0,0,0,1.56-1L47,77.92l19.55-2.12a62.62,62.62,0,0,0,.85-20.54Z"/></g></g></svg>