<svg xmlns="http://www.w3.org/2000/svg" viewBox="0 0 16 16"><defs><style>.cls-1{fill:#fff;}</style></defs><title>settings</title><g id="Layer_2" data-name="Layer 2"><g id="Layer_1-2" data-name="Layer 1"><path class="cls-1" d="M14.11,8.79l1.73,1.31q.27.19.08.53l-1.65,2.78a.38.38,0,0,1-.5.15l-2-.79a7,7,0,0,1-1.38.79L10,15.66a.37.37,0,0,1-.38.34H6.35A.37.37,0,0,1,6,15.66l-.31-2.1a6.29,6.29,0,0,1-1.38-.79l-2,.79a.38.38,0,0,1-.5-.15L.08,10.63q-.19-.34.08-.53L1.89,8.79a5.84,5.84,0,0,1,0-.79,5.86,5.86,0,0,1,0-.79L.16,5.9q-.27-.19-.08-.53L1.73,2.59a.38.38,0,0,1,.5-.15l2,.79a7,7,0,0,1,1.38-.79L6,.34A.37.37,0,0,1,6.35,0H9.65A.37.37,0,0,1,10,.34l.31,2.1a6.41,6.41,0,0,1,1.38.79l2-.79a.38.38,0,0,1,.5.15l1.65,2.78q.19.34-.08.53L14.11,7.21a6.1,6.1,0,0,1,0,.79A6.08,6.08,0,0,1,14.11,8.79ZM5.88,10.12A2.89,2.89,0,0,0,8,11a3,3,0,0,0,3-3A3,3,0,0,0,8,5,3,3,0,0,0,5,8,2.89,2.89,0,0,0,5.88,10.12Z"/></g></g></svg>